<svg width="8001" height="4501" version="1.1" xmlns="http://www.w3.org/2000/svg"><path fill="rgb(0,0,0)" stroke="rgb(0,0,0)" stroke-width="1" opacity="0" d="M 0 0 L 8001 0 L 8001 4501 L 0 4501 L 0 0 Z M 2684 1652 Q 2672 1654 2665 1661 L 2655 1673 L 2650 1689 L 2650 2813 Q 2652 2825 2659 2834 Q 2665 2842 2676 2846 L 2691 2849 L 2914 2849 L 2929 2846 L 2938 2841 Q 2950 2832 2954 2815 L 2954 2386 L 3651 2386 L 3651 2814 Q 3653 2825 3659 2833 L 3671 2843 L 3680 2847 L 3691 2848 L 3692 2849 L 3915 2849 L 3930 2846 L 3939 2841 Q 3951 2832 3955 2815 L 3955 1687 Q 3953 1675 3947 1668 Q 3939 1655 3922 1652 L 3685 1652 Q 3673 1654 3666 1661 Q 3654 1670 3651 1688 L 3651 2103 L 2954 2103 L 2954 1686 Q 2952 1675 2946 1668 Q 2938 1655 2921 1652 L 2684 1652 Z M 4167 1654 L 4158 1656 L 4147 1662 Q 4133 1671 4130 1691 L 4130 1917 L 4134 1934 Q 4138 1945 4146 1954 L 4517 2266 L 4197 2579 L 4152 2624 Q 4142 2636 4138 2655 L 4138 2815 Q 4140 2825 4146 2832 Q 4155 2843 4172 2847 L 4366 2847 L 4382 2843 L 4401 2832 L 4936 2297 L 4942 2284 L 4942 2269 L 4937 2258 L 4579 1935 L 5030 1934 L 5030 2815 Q 5032 2826 5038 2834 Q 5047 2845 5064 2849 L 5301 2849 Q 5312 2847 5320 2840 Q 5331 2831 5334 2814 L 5334 1690 Q 5332 1679 5327 1672 Q 5317 1658 5298 1654 L 4167 1654 Z M 1158 1655 L 1149 1657 L 1139 1662 Q 1125 1671 1121 1690 L 1121 1904 Q 1123 1915 1129 1923 Q 1137 1935 1155 1938 L 1609 1938 L 1609 2813 Q 1611 2825 1618 2834 Q 1624 2842 1635 2846 L 1650 2849 L 1875 2849 L 1890 2846 L 1899 2841 Q 1911 2832 1915 2814 L 1915 1938 L 2437 1938 Q 2446 1936 2453 1931 Q 2465 1922 2469 1906 L 2469 1688 Q 2467 1677 2461 1671 L 2449 1660 L 2433 1655 L 1158 1655 Z M 5621 1655 L 5612 1657 L 5601 1663 Q 5587 1672 5584 1692 L 5584 2813 Q 5586 2825 5593 2834 Q 5599 2842 5610 2846 L 5625 2849 L 6840 2849 L 6855 2846 L 6868 2838 Q 6877 2830 6880 2816 L 6880 1689 Q 6878 1677 6871 1670 L 6860 1660 L 6844 1655 L 6613 1655 Q 6601 1657 6593 1663 L 6582 1675 L 6577 1687 Q 6579 1692 6576 1694 L 6576 2565 L 5888 2565 L 5888 1689 Q 5885 1676 5878 1669 L 5868 1660 L 5852 1655 L 5621 1655 Z "></path><path fill="rgb(196,225,66)" stroke="rgb(196,225,66)" stroke-width="1" opacity="0.9490196078431372" d="M 4899.5 2223 L 4903.5 2228 L 4899.5 2223 Z "></path><path fill="rgb(196,225,66)" stroke="rgb(196,225,66)" stroke-width="1" opacity="0.9490196078431372" d="M 4908.5 2231 L 4915.5 2239 L 4908.5 2231 Z "></path><path fill="rgb(196,225,66)" stroke="rgb(196,225,66)" stroke-width="1" opacity="0.9490196078431372" d="M 4917.5 2239 L 4937 2257.5 L 4938 2259.5 L 4936 2258.5 L 4926.5 2248 L 4917.5 2239 Z "></path><path fill="rgb(196,225,66)" stroke="rgb(196,225,66)" stroke-width="1" opacity="0.9490196078431372" d="M 4939.5 2263 Q 4942.9 2266.6 4942 2274.5 L 4941 2274.5 L 4941 2268.5 L 4939.5 2263 Z "></path><path fill="rgb(196,225,66)" stroke="rgb(196,225,66)" stroke-width="1" opacity="0.9490196078431372" d="M 4516.5 2266 L 4518.5 2266 L 4523.5 2270 L 4761.5 2470 L 4934 2297.5 L 4940.5 2285 L 4941 2287.5 L 4936 2296.5 L 4400.5 2832 L 4381.5 2843 L 4365.5 2847 L 4232.5 2847 L 4232.5 2846 L 4353.5 2846 L 4354 2845.5 L 4354 2427.5 L 4321.5 2459 L 4238.5 2540 L 4283.5 2494 L 4516.5 2266 Z "></path><path fill="rgb(196,225,66)" stroke="rgb(196,225,66)" stroke-width="1" opacity="0.9490196078431372" d="M 4941.5 2277 L 4942 2283.5 L 4941 2283.5 L 4941.5 2277 Z "></path><path fill="rgb(209,239,67)" stroke="rgb(209,239,67)" stroke-width="1" opacity="0.996078431372549" d="M 2683.5 1652 L 2921 1652.5 L 2683.5 1653 Q 2667.3 1656.8 2659 1668.5 Q 2652.9 1675.4 2651.5 1687 L 2651 1682.5 Q 2654.8 1668.8 2664.5 1661 Q 2672 1654.5 2683.5 1652 Z "></path><path fill="rgb(209,239,67)" stroke="rgb(209,239,67)" stroke-width="1" opacity="0.996078431372549" d="M 3684.5 1652 L 3922 1652.5 L 3684.5 1653 Q 3667.5 1657 3659 1669.5 Q 3654 1676 3652.5 1686 L 3652 1682.5 Q 3655.6 1668.6 3665.5 1661 Q 3673 1654.5 3684.5 1652 Z "></path><path fill="rgb(209,239,67)" stroke="rgb(209,239,67)" stroke-width="1" opacity="0.996078431372549" d="M 2922.5 1653 L 2932.5 1656 L 2946 1667.5 Q 2951.6 1673.4 2953 1683.5 L 2952 1683.5 Q 2949 1669.5 2939.5 1662 L 2927.5 1655 L 2922.5 1654 L 2922.5 1653 Z "></path><path fill="rgb(209,239,67)" stroke="rgb(209,239,67)" stroke-width="1" opacity="0.996078431372549" d="M 3923.5 1653 L 3933.5 1656 L 3947 1667.5 L 3953 1678.5 L 3954 1684.5 L 3953 1684.5 L 3952 1678.5 L 3943 1664 L 3934.5 1658 L 3923.5 1654 L 3923.5 1653 Z "></path><path fill="rgb(209,239,67)" stroke="rgb(209,239,67)" stroke-width="1" opacity="0.996078431372549" d="M 4166.5 1654 L 5298 1654.5 L 4166.5 1655 L 4166.5 1654 Z "></path><path fill="rgb(209,239,67)" stroke="rgb(209,239,67)" stroke-width="1" opacity="0.996078431372549" d="M 1157.5 1655 L 2433 1655.5 L 1157.5 1656 L 1157.5 1655 Z "></path><path fill="rgb(209,239,67)" stroke="rgb(209,239,67)" stroke-width="1" opacity="0.996078431372549" d="M 4161.5 1655 L 4165 1655.5 Q 4148.4 1658.4 4140 1669.5 L 4132.5 1684 L 4132 1681.5 Q 4136.8 1669.3 4146.5 1662 L 4161.5 1655 Z "></path><path fill="rgb(209,239,67)" stroke="rgb(209,239,67)" stroke-width="1" opacity="0.996078431372549" d="M 5299.5 1655 L 5303 1655.5 L 5299.5 1656 L 5299.5 1655 Z "></path><path fill="rgb(209,239,67)" stroke="rgb(209,239,67)" stroke-width="1" opacity="0.996078431372549" d="M 5620.5 1655 L 5852 1655.5 L 5620.5 1656 L 5620.5 1655 Z "></path><path fill="rgb(209,239,67)" stroke="rgb(209,239,67)" stroke-width="1" opacity="0.996078431372549" d="M 6612.5 1655 L 6844 1655.5 L 6612.5 1656 L 6612.5 1655 Z "></path><path fill="rgb(209,239,67)" stroke="rgb(209,239,67)" stroke-width="1" opacity="0.996078431372549" d="M 1152.5 1656 L 1156 1656.5 L 1152.5 1657 L 1152.5 1656 Z "></path><path fill="rgb(209,239,67)" stroke="rgb(209,239,67)" stroke-width="1" opacity="0.996078431372549" d="M 2434.5 1656 Q 2452.6 1658.4 2461 1670.5 L 2468 1683.5 L 2469 1692.5 L 2468 1692.5 Q 2465.5 1672 2451.5 1663 Q 2445.3 1657.7 2434.5 1657 L 2434.5 1656 Z "></path><path fill="rgb(209,239,67)" stroke="rgb(209,239,67)" stroke-width="1" opacity="0.996078431372549" d="M 5304.5 1656 Q 5319.3 1660.3 5327 1671.5 L 5332 1681.5 L 5333 1687.5 L 5332 1687.5 Q 5329.1 1671.9 5318.5 1664 L 5304.5 1657 L 5304.5 1656 Z "></path><path fill="rgb(209,239,67)" stroke="rgb(209,239,67)" stroke-width="1" opacity="0.996078431372549" d="M 5615.5 1656 L 5619 1656.5 Q 5602.6 1659.6 5594 1670.5 L 5587 1682.5 L 5585.5 1690 L 5585 1686.5 Q 5589.2 1671.2 5600.5 1663 L 5615.5 1656 Z "></path><path fill="rgb(209,239,67)" stroke="rgb(209,239,67)" stroke-width="1" opacity="0.996078431372549" d="M 5853.5 1656 Q 5869.9 1658.1 5878 1668.5 Q 5885.1 1676.4 5888 1688.5 L 5888 2565 L 6576 2565 L 6576 1693.5 L 6577 1693.5 L 6577 2566 L 5887 2566 L 5887 1688.5 Q 5883.2 1672.3 5871.5 1664 L 5860.5 1658 L 5853.5 1657 L 5853.5 1656 Z "></path><path fill="rgb(209,239,67)" stroke="rgb(209,239,67)" stroke-width="1" opacity="0.996078431372549" d="M 6607.5 1656 L 6611 1656.5 Q 6596.2 1659.2 6588 1668.5 Q 6579.3 1676.3 6577.5 1691 L 6577 1686.5 Q 6581.2 1671.2 6592.5 1663 L 6607.5 1656 Z "></path><path fill="rgb(209,239,67)" stroke="rgb(209,239,67)" stroke-width="1" opacity="0.996078431372549" d="M 6845.5 1656 Q 6862.7 1658.3 6871 1669.5 L 6878 1681.5 L 6879 1686.5 L 6878 1686.5 Q 6874.6 1671.4 6863.5 1664 L 6852.5 1658 L 6845.5 1657 L 6845.5 1656 Z "></path><path fill="rgb(209,239,67)" stroke="rgb(209,239,67)" stroke-width="1" opacity="0.996078431372549" d="M 1148.5 1657 L 1151 1657.5 Q 1137.4 1661.4 1130 1671.5 Q 1124.3 1678.8 1122 1689.5 L 1121.5 1904 L 1121 1689.5 Q 1124.9 1670.9 1138.5 1662 L 1148.5 1657 Z "></path><path fill="rgb(209,239,67)" stroke="rgb(209,239,67)" stroke-width="1" opacity="0.996078431372549" d="M 2953.5 1685 L 2954 2103 L 3651 2103 L 3651 1687.5 L 3652 1687.5 L 3652 2104 L 2953 2104 L 2953.5 1685 Z "></path><path fill="rgb(209,239,67)" stroke="rgb(209,239,67)" stroke-width="1" opacity="0.996078431372549" d="M 4131.5 1685 L 4132 1688.5 L 4131 1688.5 L 4131.5 1685 Z "></path><path fill="rgb(209,239,67)" stroke="rgb(209,239,67)" stroke-width="1" opacity="0.996078431372549" d="M 3954.5 1686 L 3955 2814.5 Q 3951.2 2832.2 3938.5 2841 Q 3933.4 2845.9 3924.5 2847 L 3924.5 2846 Q 3938.1 2843.1 3945 2833.5 Q 3951.5 2826 3954 2814.5 L 3954.5 1686 Z "></path><path fill="rgb(209,239,67)" stroke="rgb(209,239,67)" stroke-width="1" opacity="0.996078431372549" d="M 2650.5 1688 L 2651 2812.5 L 2650 2812.5 L 2650.5 1688 Z "></path><path fill="rgb(209,239,67)" stroke="rgb(209,239,67)" stroke-width="1" opacity="0.996078431372549" d="M 6879.5 1688 L 6880 1693.5 L 6879 1693.5 L 6879.5 1688 Z "></path><path fill="rgb(209,239,67)" stroke="rgb(209,239,67)" stroke-width="1" opacity="0.996078431372549" d="M 5333.5 1689 L 5334 2813.5 L 5333 2813.5 L 5333.5 1689 Z "></path><path fill="rgb(209,239,67)" stroke="rgb(209,239,67)" stroke-width="1" opacity="0.996078431372549" d="M 4130.5 1690 L 4131 1916.5 L 4130 1916.5 L 4130.5 1690 Z "></path><path fill="rgb(209,239,67)" stroke="rgb(209,239,67)" stroke-width="1" opacity="0.996078431372549" d="M 5584.5 1691 L 5585 2812.5 L 5584 2812.5 L 5584.5 1691 Z "></path><path fill="rgb(209,239,67)" stroke="rgb(209,239,67)" stroke-width="1" opacity="0.996078431372549" d="M 2468.5 1901 L 2469 1905.5 L 2468 1905.5 L 2468.5 1901 Z "></path><path fill="rgb(209,239,67)" stroke="rgb(209,239,67)" stroke-width="1" opacity="0.996078431372549" d="M 1122.5 1905 L 1127 1917.5 L 1133 1926 L 1139.5 1931 L 1153 1936.5 L 1150.5 1937 Q 1136.8 1932.7 1129 1922.5 L 1123 1911.5 L 1122.5 1905 Z "></path><path fill="rgb(209,239,67)" stroke="rgb(209,239,67)" stroke-width="1" opacity="0.996078431372549" d="M 2467.5 1907 L 2468 1909.5 Q 2463.3 1923.3 2452.5 1931 Q 2445 1938 2430.5 1938 L 2430.5 1937 L 2436.5 1937 L 2443.5 1935 Q 2453.6 1930.6 2460 1922.5 Q 2465.6 1916.6 2467.5 1907 Z "></path><path fill="rgb(209,239,67)" stroke="rgb(209,239,67)" stroke-width="1" opacity="0.996078431372549" d="M 4131.5 1918 L 4132 1922.5 L 4131 1922.5 L 4131.5 1918 Z "></path><path fill="rgb(209,239,67)" stroke="rgb(209,239,67)" stroke-width="1" opacity="0.996078431372549" d="M 4132.5 1924 Q 4138.5 1949 4156.5 1962 L 4523 2269.5 L 4518.5 2266 L 4489.5 2243 L 4146 1953.5 Q 4138.5 1945 4134 1933.5 L 4132 1927.5 L 4132.5 1924 Z "></path><path fill="rgb(209,239,67)" stroke="rgb(209,239,67)" stroke-width="1" opacity="0.996078431372549" d="M 4576.5 1933 L 5031 1933 L 5031 2814.5 L 5030 2814.5 L 5030 1934 L 4579.5 1934 L 4587.5 1943 L 4873 2199.5 L 4869.5 2197 L 4581.5 1939 L 4576.5 1933 Z "></path><path fill="rgb(209,239,67)" stroke="rgb(209,239,67)" stroke-width="1" opacity="0.996078431372549" d="M 1154.5 1937 L 1160 1937.5 L 1154.5 1938 L 1154.5 1937 Z "></path><path fill="rgb(209,239,67)" stroke="rgb(209,239,67)" stroke-width="1" opacity="0.996078431372549" d="M 1609.5 1938 L 1610 2812.5 L 1609 2812.5 L 1609.5 1938 Z "></path><path fill="rgb(209,239,67)" stroke="rgb(209,239,67)" stroke-width="1" opacity="0.996078431372549" d="M 1914.5 1938 L 1915 2813.5 L 1914 2813.5 L 1914.5 1938 Z "></path><path fill="rgb(209,239,67)" stroke="rgb(209,239,67)" stroke-width="1" opacity="0.996078431372549" d="M 4874.5 2200 L 4879.5 2206 L 4874 2201.5 L 4874.5 2200 Z "></path><path fill="rgb(209,239,67)" stroke="rgb(209,239,67)" stroke-width="1" opacity="0.996078431372549" d="M 4881.5 2207 L 4882.5 2209 L 4881.5 2207 Z "></path><path fill="rgb(209,239,67)" stroke="rgb(209,239,67)" stroke-width="1" opacity="0.996078431372549" d="M 4884.5 2209 L 4889.5 2215 L 4884 2210.5 L 4884.5 2209 Z "></path><path fill="rgb(209,239,67)" stroke="rgb(209,239,67)" stroke-width="1" opacity="0.996078431372549" d="M 4893.5 2218 L 4899 2222.5 L 4897.5 2223 L 4893.5 2218 Z "></path><path fill="rgb(209,239,67)" stroke="rgb(209,239,67)" stroke-width="1" opacity="0.996078431372549" d="M 4904.5 2227 L 4908 2231.5 L 4906 2230.5 Q 4906.7 2227.9 4904 2229 L 4904.5 2227 Z "></path><path fill="rgb(209,239,67)" stroke="rgb(209,239,67)" stroke-width="1" opacity="0.996078431372549" d="M 4914.5 2236 L 4918 2240.5 L 4916 2239.5 L 4914.5 2236 Z "></path><path fill="rgb(209,239,67)" stroke="rgb(209,239,67)" stroke-width="1" opacity="0.996078431372549" d="M 4924.5 2245 L 4925.5 2247 L 4924.5 2245 Z "></path><path fill="rgb(209,239,67)" stroke="rgb(209,239,67)" stroke-width="1" opacity="0.996078431372549" d="M 4926.5 2248 L 4927.5 2250 L 4926.5 2248 Z "></path><path fill="rgb(209,239,67)" stroke="rgb(209,239,67)" stroke-width="1" opacity="0.996078431372549" d="M 4525.5 2271 L 4528.5 2275 L 4525.5 2271 Z "></path><path fill="rgb(209,239,67)" stroke="rgb(209,239,67)" stroke-width="1" opacity="0.996078431372549" d="M 4531.5 2276 L 4534.5 2280 L 4531.5 2276 Z "></path><path fill="rgb(209,239,67)" stroke="rgb(209,239,67)" stroke-width="1" opacity="0.996078431372549" d="M 4537.5 2281 L 4540.5 2285 L 4537.5 2281 Z "></path><path fill="rgb(209,239,67)" stroke="rgb(209,239,67)" stroke-width="1" opacity="0.996078431372549" d="M 4543.5 2286 L 4546.5 2290 L 4543.5 2286 Z "></path><path fill="rgb(209,239,67)" stroke="rgb(209,239,67)" stroke-width="1" opacity="0.996078431372549" d="M 4549.5 2291 L 4553.5 2296 L 4549.5 2291 Z "></path><path fill="rgb(209,239,67)" stroke="rgb(209,239,67)" stroke-width="1" opacity="0.996078431372549" d="M 4556.5 2297 L 4559.5 2301 L 4556.5 2297 Z "></path><path fill="rgb(209,239,67)" stroke="rgb(209,239,67)" stroke-width="1" opacity="0.996078431372549" d="M 4933.5 2297 L 4761.5 2470 L 4933.5 2297 Z "></path><path fill="rgb(209,239,67)" stroke="rgb(209,239,67)" stroke-width="1" opacity="0.996078431372549" d="M 4562.5 2302 L 4565.5 2306 L 4562.5 2302 Z "></path><path fill="rgb(209,239,67)" stroke="rgb(209,239,67)" stroke-width="1" opacity="0.996078431372549" d="M 4568.5 2307 L 4571.5 2311 L 4568.5 2307 Z "></path><path fill="rgb(209,239,67)" stroke="rgb(209,239,67)" stroke-width="1" opacity="0.996078431372549" d="M 4574.5 2312 L 4577.5 2316 L 4574.5 2312 Z "></path><path fill="rgb(209,239,67)" stroke="rgb(209,239,67)" stroke-width="1" opacity="0.996078431372549" d="M 4581.5 2318 L 4584.5 2322 L 4581.5 2318 Z "></path><path fill="rgb(209,239,67)" stroke="rgb(209,239,67)" stroke-width="1" opacity="0.996078431372549" d="M 4587.5 2323 L 4590.5 2327 L 4587.5 2323 Z "></path><path fill="rgb(209,239,67)" stroke="rgb(209,239,67)" stroke-width="1" opacity="0.996078431372549" d="M 4593.5 2328 L 4596.5 2332 L 4593.5 2328 Z "></path><path fill="rgb(209,239,67)" stroke="rgb(209,239,67)" stroke-width="1" opacity="0.996078431372549" d="M 4599.5 2333 L 4602.5 2337 L 4599.5 2333 Z "></path><path fill="rgb(209,239,67)" stroke="rgb(209,239,67)" stroke-width="1" opacity="0.996078431372549" d="M 4606.5 2339 L 4609.5 2343 L 4606.5 2339 Z "></path><path fill="rgb(209,239,67)" stroke="rgb(209,239,67)" stroke-width="1" opacity="0.996078431372549" d="M 4612.5 2344 L 4615.5 2348 L 4612.5 2344 Z "></path><path fill="rgb(209,239,67)" stroke="rgb(209,239,67)" stroke-width="1" opacity="0.996078431372549" d="M 4618.5 2349 L 4621.5 2353 L 4618.5 2349 Z "></path><path fill="rgb(209,239,67)" stroke="rgb(209,239,67)" stroke-width="1" opacity="0.996078431372549" d="M 4624.5 2354 L 4627.5 2358 L 4624.5 2354 Z "></path><path fill="rgb(209,239,67)" stroke="rgb(209,239,67)" stroke-width="1" opacity="0.996078431372549" d="M 4631.5 2360 L 4633.5 2363 L 4631.5 2360 Z "></path><path fill="rgb(209,239,67)" stroke="rgb(209,239,67)" stroke-width="1" opacity="0.996078431372549" d="M 4637.5 2365 L 4639.5 2368 L 4637.5 2365 Z "></path><path fill="rgb(209,239,67)" stroke="rgb(209,239,67)" stroke-width="1" opacity="0.996078431372549" d="M 4643.5 2370 L 4645.5 2373 L 4643.5 2370 Z "></path><path fill="rgb(209,239,67)" stroke="rgb(209,239,67)" stroke-width="1" opacity="0.996078431372549" d="M 4649.5 2375 L 4651.5 2378 L 4649.5 2375 Z "></path><path fill="rgb(209,239,67)" stroke="rgb(209,239,67)" stroke-width="1" opacity="0.996078431372549" d="M 4655.5 2380 L 4658.5 2384 L 4655.5 2380 Z "></path><path fill="rgb(209,239,67)" stroke="rgb(209,239,67)" stroke-width="1" opacity="0.996078431372549" d="M 2953.5 2386 L 2954 2814.5 L 2953 2814.5 L 2953.5 2386 Z "></path><path fill="rgb(209,239,67)" stroke="rgb(209,239,67)" stroke-width="1" opacity="0.996078431372549" d="M 3651.5 2386 L 3652 2813.5 Q 3655.3 2829.3 3665.5 2838 Q 3671.9 2844.1 3682 2846.5 L 3679.5 2847 Q 3666.3 2842.7 3659 2832.5 Q 3652.9 2825.1 3651 2813.5 L 3651.5 2386 Z "></path><path fill="rgb(209,239,67)" stroke="rgb(209,239,67)" stroke-width="1" opacity="0.996078431372549" d="M 4662.5 2386 L 4664.5 2389 L 4662.5 2386 Z "></path><path fill="rgb(209,239,67)" stroke="rgb(209,239,67)" stroke-width="1" opacity="0.996078431372549" d="M 4668.5 2391 L 4670.5 2394 L 4668.5 2391 Z "></path><path fill="rgb(209,239,67)" stroke="rgb(209,239,67)" stroke-width="1" opacity="0.996078431372549" d="M 4674.5 2396 L 4676.5 2399 L 4674.5 2396 Z "></path><path fill="rgb(209,239,67)" stroke="rgb(209,239,67)" stroke-width="1" opacity="0.996078431372549" d="M 4680.5 2401 L 4683.5 2405 L 4680.5 2401 Z "></path><path fill="rgb(209,239,67)" stroke="rgb(209,239,67)" stroke-width="1" opacity="0.996078431372549" d="M 4687.5 2407 L 4689.5 2410 L 4687.5 2407 Z "></path><path fill="rgb(209,239,67)" stroke="rgb(209,239,67)" stroke-width="1" opacity="0.996078431372549" d="M 4693.5 2412 L 4695.5 2415 L 4693.5 2412 Z "></path><path fill="rgb(209,239,67)" stroke="rgb(209,239,67)" stroke-width="1" opacity="0.996078431372549" d="M 4699.5 2417 L 4701.5 2420 L 4699.5 2417 Z "></path><path fill="rgb(209,239,67)" stroke="rgb(209,239,67)" stroke-width="1" opacity="0.996078431372549" d="M 4705.5 2422 L 4707.5 2425 L 4705.5 2422 Z "></path><path fill="rgb(209,239,67)" stroke="rgb(209,239,67)" stroke-width="1" opacity="0.996078431372549" d="M 4353.5 2427 L 4354 2846 L 4171.5 2847 Q 4154.9 2843.1 4146 2831.5 Q 4138.8 2824.2 4138 2810.5 L 4139 2810.5 L 4139 2814.5 L 4142 2823.5 L 4151.5 2836 L 4153 2835.5 L 4153 2625.5 L 4151 2626.5 Q 4143.5 2635.5 4140.5 2649 L 4140 2646.5 Q 4144 2633 4152 2623.5 L 4196.5 2579 L 4246.5 2530 L 4247.5 2531 L 4271.5 2507 L 4285 2494.5 L 4284 2493.5 L 4295.5 2482 L 4296.5 2483 L 4320.5 2459 L 4353.5 2427 Z "></path><path fill="rgb(209,239,67)" stroke="rgb(209,239,67)" stroke-width="1" opacity="0.996078431372549" d="M 4712.5 2428 L 4714.5 2431 L 4712.5 2428 Z "></path><path fill="rgb(209,239,67)" stroke="rgb(209,239,67)" stroke-width="1" opacity="0.996078431372549" d="M 4718.5 2433 L 4720.5 2436 L 4718.5 2433 Z "></path><path fill="rgb(209,239,67)" stroke="rgb(209,239,67)" stroke-width="1" opacity="0.996078431372549" d="M 4724.5 2438 L 4726.5 2441 L 4724.5 2438 Z "></path><path fill="rgb(209,239,67)" stroke="rgb(209,239,67)" stroke-width="1" opacity="0.996078431372549" d="M 4730.5 2443 L 4732.5 2446 L 4730.5 2443 Z "></path><path fill="rgb(209,239,67)" stroke="rgb(209,239,67)" stroke-width="1" opacity="0.996078431372549" d="M 4737.5 2449 L 4738.5 2451 L 4737.5 2449 Z "></path><path fill="rgb(209,239,67)" stroke="rgb(209,239,67)" stroke-width="1" opacity="0.996078431372549" d="M 4743.5 2454 L 4745.5 2457 L 4743.5 2454 Z "></path><path fill="rgb(209,239,67)" stroke="rgb(209,239,67)" stroke-width="1" opacity="0.996078431372549" d="M 4749.5 2459 L 4751.5 2462 L 4749.5 2459 Z "></path><path fill="rgb(209,239,67)" stroke="rgb(209,239,67)" stroke-width="1" opacity="0.996078431372549" d="M 4755.5 2464 L 4757.5 2467 L 4755.5 2464 Z "></path><path fill="rgb(209,239,67)" stroke="rgb(209,239,67)" stroke-width="1" opacity="0.996078431372549" d="M 4139.5 2650 L 4140 2653.5 L 4138.5 2661 L 4138 2654.5 L 4139.5 2650 Z "></path><path fill="rgb(209,239,67)" stroke="rgb(209,239,67)" stroke-width="1" opacity="0.996078431372549" d="M 6879.5 2810 L 6880 2815.5 L 6879 2815.5 L 6879.5 2810 Z "></path><path fill="rgb(209,239,67)" stroke="rgb(209,239,67)" stroke-width="1" opacity="0.996078431372549" d="M 1610.5 2814 Q 1613.9 2832.6 1627.5 2841 Q 1634.5 2846.5 1646 2847.5 L 1641.5 2848 Q 1626.1 2844.4 1618 2833.5 Q 1610.8 2826.1 1610.5 2814 Z "></path><path fill="rgb(209,239,67)" stroke="rgb(209,239,67)" stroke-width="1" opacity="0.996078431372549" d="M 2651.5 2814 Q 2654.9 2832.6 2668.5 2841 Q 2675.5 2846.5 2687 2847.5 L 2682.5 2848 Q 2667.1 2844.4 2659 2833.5 Q 2651.8 2826.1 2651.5 2814 Z "></path><path fill="rgb(209,239,67)" stroke="rgb(209,239,67)" stroke-width="1" opacity="0.996078431372549" d="M 5585.5 2814 Q 5588.9 2832.6 5602.5 2841 Q 5609.5 2846.5 5621 2847.5 L 5616.5 2848 Q 5601.1 2844.4 5593 2833.5 Q 5585.8 2826.1 5585.5 2814 Z "></path><path fill="rgb(209,239,67)" stroke="rgb(209,239,67)" stroke-width="1" opacity="0.996078431372549" d="M 1913.5 2815 L 1914 2818.5 Q 1909.4 2832.9 1898.5 2841 Q 1893.4 2845.9 1884.5 2847 L 1884.5 2846 Q 1897.3 2843.3 1904 2834.5 L 1912 2821.5 L 1913.5 2815 Z "></path><path fill="rgb(209,239,67)" stroke="rgb(209,239,67)" stroke-width="1" opacity="0.996078431372549" d="M 5332.5 2815 L 5333 2818.5 Q 5329.4 2832.4 5319.5 2840 Q 5312 2846.5 5300.5 2849 L 5063.5 2849 L 5063.5 2848 L 5300.5 2848 Q 5317.5 2844 5326 2831.5 Q 5331 2825 5332.5 2815 Z "></path><path fill="rgb(209,239,67)" stroke="rgb(209,239,67)" stroke-width="1" opacity="0.996078431372549" d="M 2952.5 2816 L 2953 2819.5 Q 2948.3 2833.3 2937.5 2841 Q 2930.2 2847.2 2917.5 2848 L 2917.5 2847 Q 2936.4 2844.9 2945 2832.5 Q 2950.6 2826.1 2952.5 2816 Z "></path><path fill="rgb(209,239,67)" stroke="rgb(209,239,67)" stroke-width="1" opacity="0.996078431372549" d="M 5031.5 2816 Q 5035.1 2832.9 5047.5 2841 L 5062 2847.5 L 5059.5 2848 Q 5045.8 2843.8 5038 2833.5 L 5032 2822.5 L 5031.5 2816 Z "></path><path fill="rgb(209,239,67)" stroke="rgb(209,239,67)" stroke-width="1" opacity="0.996078431372549" d="M 6878.5 2817 L 6879 2819.5 Q 6875.3 2830.8 6867.5 2838 Q 6859.5 2846.5 6844.5 2848 L 6844.5 2847 Q 6862.6 2844.6 6871 2832.5 Q 6876.6 2826.6 6878.5 2817 Z "></path><path fill="rgb(209,239,67)" stroke="rgb(209,239,67)" stroke-width="1" opacity="0.996078431372549" d="M 1878.5 2847 L 1883 2847.5 L 1878.5 2848 L 1878.5 2847 Z "></path><path fill="rgb(209,239,67)" stroke="rgb(209,239,67)" stroke-width="1" opacity="0.996078431372549" d="M 3683.5 2847 L 3688 2847.5 L 3683.5 2848 L 3683.5 2847 Z "></path><path fill="rgb(209,239,67)" stroke="rgb(209,239,67)" stroke-width="1" opacity="0.996078431372549" d="M 3918.5 2847 L 3923 2847.5 L 3918.5 2848 L 3918.5 2847 Z "></path><path fill="rgb(209,239,67)" stroke="rgb(209,239,67)" stroke-width="1" opacity="0.996078431372549" d="M 1649.5 2848 L 1875 2848.5 L 1649.5 2849 L 1649.5 2848 Z "></path><path fill="rgb(209,239,67)" stroke="rgb(209,239,67)" stroke-width="1" opacity="0.996078431372549" d="M 2690.5 2848 L 2914 2848.5 L 2690.5 2849 L 2690.5 2848 Z "></path><path fill="rgb(209,239,67)" stroke="rgb(209,239,67)" stroke-width="1" opacity="0.996078431372549" d="M 3691.5 2848 L 3915 2848.5 L 3691.5 2849 L 3691.5 2848 Z "></path><path fill="rgb(209,239,67)" stroke="rgb(209,239,67)" stroke-width="1" opacity="0.996078431372549" d="M 5624.5 2848 L 6840 2848.5 L 5624.5 2849 L 5624.5 2848 Z "></path><path fill="rgb(209,240,67)" stroke="rgb(209,240,67)" stroke-width="1" opacity="1" d="M 2683.5 1653 L 2921.5 1653 Q 2935 1656.5 2943 1665.5 Q 2950.1 1672.9 2953 1684.5 L 2953 2104 L 3652 2104 L 3652 1686.5 Q 3655.6 1668.6 3668.5 1660 Q 3674.9 1654.9 3684.5 1653 L 3922.5 1653 L 3934.5 1658 L 3943 1664 L 3949 1672.5 L 3954 1685.5 L 3954 2814.5 Q 3950.4 2830.4 3939.5 2839 L 3929.5 2845 L 3917.5 2848 L 3688.5 2848 L 3672.5 2843 L 3662 2834.5 Q 3654.2 2826.8 3652 2813.5 L 3652 2386 L 2953 2386 L 2953 2815.5 Q 2949.4 2830.9 2938.5 2839 L 2928.5 2845 L 2916.5 2848 L 2687.5 2848 L 2673.5 2844 Q 2663.9 2839.1 2658 2830.5 Q 2652.9 2823.6 2651 2813.5 L 2651 1687.5 Q 2654.2 1668.7 2667.5 1660 Q 2673.9 1654.9 2683.5 1653 Z "></path><path fill="rgb(209,240,67)" stroke="rgb(209,240,67)" stroke-width="1" opacity="1" d="M 4165.5 1655 L 5298.5 1655 Q 5315.2 1658.3 5324 1669.5 Q 5330.5 1677 5333 1688.5 L 5333 2814.5 Q 5329.4 2832.4 5316.5 2841 Q 5310.1 2846.1 5300.5 2848 L 5062.5 2848 Q 5046.5 2843.5 5038 2831.5 Q 5032.9 2825.1 5031 2815.5 L 5031 1933 L 4576 1933.5 L 4935 2256.5 L 4941 2268.5 L 4941 2283.5 L 4936 2294.5 L 4761.5 2469 L 4175.5 1978 L 4144 1949.5 L 4135 1933.5 L 4131 1917.5 L 4131 1689.5 Q 4134.3 1672.8 4145.5 1664 L 4157.5 1657 L 4165.5 1655 Z "></path><path fill="rgb(209,240,67)" stroke="rgb(209,240,67)" stroke-width="1" opacity="1" d="M 1156.5 1656 L 2433.5 1656 Q 2452.3 1659.2 2461 1672.5 L 2467 1683.5 L 2469 1693.5 L 2469 1900.5 L 2464 1916.5 L 2453.5 1929 L 2443.5 1935 L 2429.5 1938 L 1914 1938 L 1914 2814.5 Q 1910.4 2829.4 1900.5 2838 L 1889.5 2845 L 1877.5 2848 L 1646.5 2848 L 1632.5 2844 Q 1622.9 2839.1 1617 2830.5 Q 1611.9 2823.6 1610 2813.5 L 1610 1938 L 1160.5 1938 L 1147.5 1935 L 1133 1926 L 1127 1917.5 L 1122 1904.5 L 1122 1689.5 Q 1125.9 1672.9 1137.5 1664 Q 1144.9 1657.9 1156.5 1656 Z "></path><path fill="rgb(209,240,67)" stroke="rgb(209,240,67)" stroke-width="1" opacity="1" d="M 5619.5 1656 L 5852.5 1656 Q 5870.8 1659.8 5880 1672.5 Q 5885.1 1678.9 5887 1688.5 L 5887 2566 L 6577 2566 L 6577 1691.5 Q 6579.9 1674.9 6590.5 1666 Q 6598.5 1658.5 6611.5 1656 L 6844.5 1656 Q 6863.3 1659.2 6872 1672.5 L 6877 1681.5 L 6880 1694.5 L 6880 2809.5 Q 6877.5 2811 6879 2816.5 L 6874 2828.5 L 6863.5 2840 Q 6855.5 2846 6843.5 2848 L 5621.5 2848 L 5607.5 2844 Q 5597.9 2839.1 5592 2830.5 Q 5586.9 2823.6 5585 2813.5 L 5585 1690.5 Q 5588.5 1674 5599.5 1665 Q 5607.4 1658.4 5619.5 1656 Z "></path><path fill="rgb(209,240,67)" stroke="rgb(209,240,67)" stroke-width="1" opacity="1" d="M 4152.5 2625 L 4153 2836 L 4148 2832.5 L 4142 2823.5 L 4138 2809.5 L 4138 2661.5 L 4143 2640.5 L 4152.5 2625 Z "></path></svg>