<svg xmlns="http://www.w3.org/2000/svg" xmlns:xlink="http://www.w3.org/1999/xlink" width="1920" zoomAndPan="magnify" viewBox="0 0 1440 809.999993" height="1080" preserveAspectRatio="xMidYMid meet" version="1.0"><defs><g/></defs><path fill="#dcfe54" d="M 347.03125 322.085938 L 466.191406 322.085938 L 466.191406 549.871094 C 466.191406 555.710938 470.925781 560.445312 476.765625 560.445312 L 534.503906 560.445312 C 540.34375 560.445312 545.078125 555.710938 545.078125 549.871094 L 545.078125 260.128906 C 545.078125 254.289062 540.34375 249.554688 534.503906 249.554688 L 242.488281 249.554688 C 236.648438 249.554688 231.914062 254.289062 231.914062 260.128906 L 231.914062 316.027344 C 231.914062 321.039062 234.136719 325.792969 237.976562 329.015625 L 332.78125 408.570312 Z M 347.03125 322.085938 " fill-opacity="1" fill-rule="nonzero"/><path fill="#dcfe54" d="M 347.03125 322.085938 L 466.191406 322.085938 L 466.191406 549.871094 C 466.191406 555.710938 470.925781 560.445312 476.765625 560.445312 L 534.503906 560.445312 C 540.34375 560.445312 545.078125 555.710938 545.078125 549.871094 L 545.078125 260.128906 C 545.078125 254.289062 540.34375 249.554688 534.503906 249.554688 L 242.488281 249.554688 C 236.648438 249.554688 231.914062 254.289062 231.914062 260.128906 L 231.914062 316.027344 " fill-opacity="1" fill-rule="nonzero"/><path fill="#dcfe54" d="M 233.835938 512.949219 L 233.835938 549.269531 C 233.835938 555.136719 238.589844 559.882812 244.449219 559.882812 L 290.773438 559.882812 C 295.46875 559.882812 299.976562 558.015625 303.300781 554.691406 L 440.730469 417.226562 C 444.082031 413.871094 443.917969 408.398438 440.386719 405.246094 L 385.816406 356.625 L 239.160156 500.296875 C 235.761719 503.625 233.84375 508.183594 233.84375 512.941406 Z M 233.835938 512.949219 " fill-opacity="1" fill-rule="nonzero"/><path fill="#dcfe54" d="M 313.734375 291.375 L 260.355469 291.375 C 260.355469 291.375 260.355469 347.796875 260.355469 347.796875 L 396.148438 461.8125 L 440.640625 417.308594 C 444.039062 413.910156 443.886719 408.359375 440.316406 405.148438 L 313.734375 291.382812 Z M 313.734375 291.375 " fill-opacity="1" fill-rule="nonzero"/><g fill="#ffffff" fill-opacity="1"><g transform="translate(601.85856, 380.904946)"><g><path d="M 24.46875 0 L 24.46875 -61.234375 L 2.03125 -61.234375 L 2.03125 -74.15625 L 64.015625 -74.15625 L 64.015625 -61.234375 L 41.578125 -61.234375 L 41.578125 0 Z M 24.46875 0 "/></g></g></g><g fill="#ffffff" fill-opacity="1"><g transform="translate(667.901415, 380.904946)"><g><path d="M 6.71875 -57.8125 L 6.71875 -74.15625 L 23.453125 -74.15625 L 23.453125 -57.8125 Z M 6.46875 0 L 6.46875 -53.875 L 23.578125 -53.875 L 23.578125 0 Z M 6.46875 0 "/></g></g></g><g fill="#ffffff" fill-opacity="1"><g transform="translate(697.94394, 380.904946)"><g><path d="M 35.875 0.765625 C 25.394531 0.765625 17.453125 -1.832031 12.046875 -7.03125 C 6.640625 -12.226562 3.9375 -18.925781 3.9375 -27.125 C 3.9375 -35.320312 6.640625 -42.039062 12.046875 -47.28125 C 17.453125 -52.519531 25.394531 -55.140625 35.875 -55.140625 C 45.082031 -55.140625 51.945312 -53.46875 56.46875 -50.125 C 60.988281 -46.789062 63.800781 -41.828125 64.90625 -35.234375 L 47.796875 -35.234375 C 46.691406 -40.304688 42.71875 -42.84375 35.875 -42.84375 C 31.0625 -42.84375 27.382812 -41.488281 24.84375 -38.78125 C 22.3125 -36.082031 21.046875 -32.195312 21.046875 -27.125 C 21.046875 -22.050781 22.3125 -18.179688 24.84375 -15.515625 C 27.382812 -12.859375 31.0625 -11.53125 35.875 -11.53125 C 42.71875 -11.53125 46.691406 -14.066406 47.796875 -19.140625 L 64.90625 -19.140625 C 63.800781 -12.546875 61.007812 -7.578125 56.53125 -4.234375 C 52.050781 -0.898438 45.164062 0.765625 35.875 0.765625 Z M 35.875 0.765625 "/></g></g></g><g fill="#ffffff" fill-opacity="1"><g transform="translate(765.634698, 380.904946)"><g><path d="M 6.46875 0 L 6.46875 -74.15625 L 23.828125 -74.15625 L 23.828125 -35.75 L 25.609375 -35.75 L 42.96875 -53.875 L 65.03125 -53.875 L 40.953125 -28.515625 L 64.90625 0 L 43.984375 0 L 23.828125 -24.21875 L 23.828125 0 Z M 6.46875 0 "/></g></g></g><g fill="#ffffff" fill-opacity="1"><g transform="translate(832.057828, 380.904946)"><g><path d="M 34.859375 0.765625 C 24.546875 0.765625 16.8125 -1.851562 11.65625 -7.09375 C 6.507812 -12.332031 3.9375 -19.007812 3.9375 -27.125 C 3.9375 -35.40625 6.445312 -42.144531 11.46875 -47.34375 C 16.5 -52.539062 24.171875 -55.140625 34.484375 -55.140625 C 44.703125 -55.140625 52.238281 -52.539062 57.09375 -47.34375 C 61.957031 -42.144531 64.390625 -35.40625 64.390625 -27.125 L 64.390625 -20.921875 L 21.046875 -20.921875 C 21.546875 -17.367188 22.914062 -14.914062 25.15625 -13.5625 C 27.394531 -12.207031 30.585938 -11.53125 34.734375 -11.53125 C 39.722656 -11.53125 42.976562 -13.140625 44.5 -16.359375 L 61.734375 -16.359375 C 61.140625 -11.453125 58.304688 -7.367188 53.234375 -4.109375 C 48.171875 -0.859375 42.046875 0.765625 34.859375 0.765625 Z M 21.171875 -32.953125 L 47.53125 -32.953125 C 46.351562 -36.847656 44.75 -39.46875 42.71875 -40.8125 C 40.6875 -42.164062 37.894531 -42.84375 34.34375 -42.84375 C 30.800781 -42.84375 28.015625 -42.164062 25.984375 -40.8125 C 23.953125 -39.46875 22.347656 -36.847656 21.171875 -32.953125 Z M 21.171875 -32.953125 "/></g></g></g><g fill="#ffffff" fill-opacity="1"><g transform="translate(899.748574, 380.904946)"><g><path d="M 31.5625 0.765625 C 24.96875 0.765625 20.210938 -1.15625 17.296875 -5 C 14.390625 -8.851562 12.9375 -14.707031 12.9375 -22.5625 L 12.9375 -40.953125 L 2.65625 -40.953125 L 2.65625 -53.875 L 12.9375 -53.875 L 12.9375 -69.96875 L 30.171875 -74.53125 L 30.171875 -53.875 L 43.734375 -53.875 L 43.734375 -40.953125 L 30.171875 -40.953125 L 30.171875 -21.046875 C 30.171875 -15.210938 33.378906 -12.296875 39.796875 -12.296875 C 40.566406 -12.296875 41.878906 -12.378906 43.734375 -12.546875 L 43.734375 -0.5 C 41.367188 0.0820312 37.3125 0.503906 31.5625 0.765625 Z M 31.5625 0.765625 "/></g></g></g><g fill="#ffffff" fill-opacity="1"><g transform="translate(601.85856, 532.572502)"><g><path d="M 6.46875 0 L 6.46875 -74.15625 L 40.0625 -74.15625 C 49.78125 -74.15625 57.257812 -71.660156 62.5 -66.671875 C 67.738281 -61.691406 70.359375 -55.566406 70.359375 -48.296875 C 70.359375 -41.109375 67.738281 -34.957031 62.5 -29.84375 C 57.257812 -24.738281 49.78125 -22.1875 40.0625 -22.1875 L 23.578125 -22.1875 L 23.578125 0 Z M 23.578125 -35.109375 L 40.3125 -35.109375 C 44.113281 -35.109375 47.21875 -36.289062 49.625 -38.65625 C 52.03125 -41.03125 53.234375 -44.203125 53.234375 -48.171875 C 53.234375 -52.140625 52.03125 -55.304688 49.625 -57.671875 C 47.21875 -60.046875 44.113281 -61.234375 40.3125 -61.234375 L 23.578125 -61.234375 Z M 23.578125 -35.109375 "/></g></g></g><g fill="#ffffff" fill-opacity="1"><g transform="translate(674.873315, 532.572502)"><g><path d="M 6.46875 0 L 6.46875 -53.875 L 23.328125 -53.875 L 24.078125 -48.421875 C 26.703125 -52.898438 32.535156 -55.140625 41.578125 -55.140625 C 44.453125 -55.140625 46.691406 -54.800781 48.296875 -54.125 L 48.296875 -41.203125 C 45.585938 -41.878906 43.140625 -42.21875 40.953125 -42.21875 C 36.472656 -42.21875 32.457031 -41.03125 28.90625 -38.65625 C 25.351562 -36.289062 23.578125 -33.25 23.578125 -29.53125 L 23.578125 0 Z M 6.46875 0 "/></g></g></g><g fill="#ffffff" fill-opacity="1"><g transform="translate(725.197722, 532.572502)"><g><path d="M 58.6875 -6.96875 C 53.445312 -1.8125 45.628906 0.765625 35.234375 0.765625 C 24.847656 0.765625 17.035156 -1.8125 11.796875 -6.96875 C 6.554688 -12.125 3.9375 -18.84375 3.9375 -27.125 C 3.9375 -35.40625 6.554688 -42.144531 11.796875 -47.34375 C 17.035156 -52.539062 24.847656 -55.140625 35.234375 -55.140625 C 45.628906 -55.140625 53.445312 -52.539062 58.6875 -47.34375 C 63.925781 -42.144531 66.546875 -35.40625 66.546875 -27.125 C 66.546875 -18.84375 63.925781 -12.125 58.6875 -6.96875 Z M 35.234375 -11.53125 C 39.546875 -11.53125 42.988281 -12.796875 45.5625 -15.328125 C 48.144531 -17.867188 49.4375 -21.800781 49.4375 -27.125 C 49.4375 -32.445312 48.125 -36.394531 45.5 -38.96875 C 42.882812 -41.550781 39.460938 -42.84375 35.234375 -42.84375 C 31.097656 -42.84375 27.695312 -41.53125 25.03125 -38.90625 C 22.375 -36.289062 21.046875 -32.363281 21.046875 -27.125 C 21.046875 -21.882812 22.375 -17.972656 25.03125 -15.390625 C 27.695312 -12.816406 31.097656 -11.53125 35.234375 -11.53125 Z M 35.234375 -11.53125 "/></g></g></g></svg>