<svg xmlns="http://www.w3.org/2000/svg" xmlns:xlink="http://www.w3.org/1999/xlink" width="1920" zoomAndPan="magnify" viewBox="0 0 1440 809.999993" height="1080" preserveAspectRatio="xMidYMid meet" version="1.0"><defs><g/></defs><path fill="#dcfe54" d="M 347.03125 322.085938 L 466.191406 322.085938 L 466.191406 549.871094 C 466.191406 555.710938 470.925781 560.445312 476.765625 560.445312 L 534.503906 560.445312 C 540.34375 560.445312 545.078125 555.710938 545.078125 549.871094 L 545.078125 260.128906 C 545.078125 254.289062 540.34375 249.554688 534.503906 249.554688 L 242.488281 249.554688 C 236.648438 249.554688 231.914062 254.289062 231.914062 260.128906 L 231.914062 316.027344 C 231.914062 321.039062 234.136719 325.792969 237.976562 329.015625 L 332.78125 408.570312 Z M 347.03125 322.085938 " fill-opacity="1" fill-rule="nonzero"/><path fill="#dcfe54" d="M 347.03125 322.085938 L 466.191406 322.085938 L 466.191406 549.871094 C 466.191406 555.710938 470.925781 560.445312 476.765625 560.445312 L 534.503906 560.445312 C 540.34375 560.445312 545.078125 555.710938 545.078125 549.871094 L 545.078125 260.128906 C 545.078125 254.289062 540.34375 249.554688 534.503906 249.554688 L 242.488281 249.554688 C 236.648438 249.554688 231.914062 254.289062 231.914062 260.128906 L 231.914062 316.027344 " fill-opacity="1" fill-rule="nonzero"/><path fill="#dcfe54" d="M 233.835938 512.949219 L 233.835938 549.269531 C 233.835938 555.136719 238.589844 559.882812 244.449219 559.882812 L 290.773438 559.882812 C 295.46875 559.882812 299.976562 558.015625 303.300781 554.691406 L 440.730469 417.226562 C 444.082031 413.871094 443.917969 408.398438 440.386719 405.246094 L 385.816406 356.625 L 239.160156 500.296875 C 235.761719 503.625 233.84375 508.183594 233.84375 512.941406 Z M 233.835938 512.949219 " fill-opacity="1" fill-rule="nonzero"/><path fill="#dcfe54" d="M 313.734375 291.375 L 260.355469 291.375 C 260.355469 291.375 260.355469 347.796875 260.355469 347.796875 L 396.148438 461.8125 L 440.640625 417.308594 C 444.039062 413.910156 443.886719 408.359375 440.316406 405.148438 L 313.734375 291.382812 Z M 313.734375 291.375 " fill-opacity="1" fill-rule="nonzero"/><g fill="#ffffff" fill-opacity="1"><g transform="translate(601.85856, 372.654947)"><g><path d="M 32.453125 -70.984375 L 7.09375 -70.984375 C 4.8125 -70.984375 3.671875 -72.125 3.671875 -74.40625 L 3.671875 -85.3125 C 3.671875 -87.59375 4.8125 -88.734375 7.09375 -88.734375 L 79.109375 -88.734375 C 81.390625 -88.734375 82.53125 -87.59375 82.53125 -85.3125 L 82.53125 -72.390625 C 82.53125 -71.453125 82.101562 -70.984375 81.25 -70.984375 L 53.75 -70.984375 C 52.644531 -70.984375 52.09375 -70.4375 52.09375 -69.34375 L 52.09375 -3.421875 C 52.09375 -2.328125 51.753906 -1.484375 51.078125 -0.890625 C 50.410156 -0.296875 49.609375 0 48.671875 0 L 37.65625 0 C 35.375 0 34.234375 -1.140625 34.234375 -3.421875 L 34.234375 -69.34375 C 34.234375 -70.4375 33.640625 -70.984375 32.453125 -70.984375 Z M 32.453125 -70.984375 "/></g></g></g><g fill="#ffffff" fill-opacity="1"><g transform="translate(688.056531, 372.654947)"><g><path d="M 3.671875 -3.421875 L 3.671875 -85.3125 C 3.671875 -87.59375 4.8125 -88.734375 7.09375 -88.734375 L 18 -88.734375 C 20.28125 -88.734375 21.421875 -87.59375 21.421875 -85.3125 L 21.421875 -3.421875 C 21.421875 -1.140625 20.28125 0 18 0 L 7.09375 0 C 4.8125 0 3.671875 -1.140625 3.671875 -3.421875 Z M 3.671875 -3.421875 "/></g></g></g><g fill="#ffffff" fill-opacity="1"><g transform="translate(713.155357, 372.654947)"><g><path d="M 21.421875 -69.34375 L 21.421875 -19.390625 C 21.421875 -18.296875 21.972656 -17.75 23.078125 -17.75 L 63.125 -17.75 C 64.226562 -17.75 64.78125 -18.296875 64.78125 -19.390625 L 64.78125 -34.234375 C 64.78125 -35.410156 65.367188 -36 66.546875 -36 L 79.234375 -36 C 81.429688 -36 82.53125 -34.859375 82.53125 -32.578125 L 82.53125 -3.546875 C 82.53125 -2.535156 82.234375 -1.691406 81.640625 -1.015625 C 81.046875 -0.335938 80.203125 0 79.109375 0 L 7.21875 0 C 6.207031 0 5.363281 -0.335938 4.6875 -1.015625 C 4.007812 -1.691406 3.671875 -2.535156 3.671875 -3.546875 L 3.671875 -85.1875 C 3.671875 -86.195312 4.007812 -87.039062 4.6875 -87.71875 C 5.363281 -88.394531 6.207031 -88.734375 7.21875 -88.734375 L 79.109375 -88.734375 C 80.203125 -88.734375 81.046875 -88.394531 81.640625 -87.71875 C 82.234375 -87.039062 82.53125 -86.195312 82.53125 -85.1875 L 82.53125 -57.171875 C 82.53125 -54.972656 81.429688 -53.875 79.234375 -53.875 L 66.546875 -53.875 C 65.367188 -53.875 64.78125 -54.421875 64.78125 -55.515625 L 64.78125 -69.34375 C 64.78125 -70.4375 64.226562 -70.984375 63.125 -70.984375 L 23.078125 -70.984375 C 21.972656 -70.984375 21.421875 -70.4375 21.421875 -69.34375 Z M 21.421875 -69.34375 "/></g></g></g><g fill="#ffffff" fill-opacity="1"><g transform="translate(799.353316, 372.654947)"><g><path d="M 63.765625 -25.359375 L 54.765625 -34.359375 C 54.003906 -35.117188 53.070312 -35.5 51.96875 -35.5 L 23.203125 -35.5 C 22.097656 -35.5 21.546875 -34.945312 21.546875 -33.84375 L 21.546875 -3.546875 C 21.546875 -1.179688 20.363281 0 18 0 L 7.21875 0 C 4.851562 0 3.671875 -1.179688 3.671875 -3.546875 L 3.671875 -85.1875 C 3.671875 -87.550781 4.851562 -88.734375 7.21875 -88.734375 L 18 -88.734375 C 20.363281 -88.734375 21.546875 -87.550781 21.546875 -85.1875 L 21.546875 -54.890625 C 21.546875 -53.785156 22.097656 -53.234375 23.203125 -53.234375 L 51.96875 -53.234375 C 53.070312 -53.234375 54.003906 -53.613281 54.765625 -54.375 L 63.765625 -63.390625 C 64.523438 -64.148438 64.90625 -65.078125 64.90625 -66.171875 L 64.90625 -85.1875 C 64.90625 -87.550781 66.085938 -88.734375 68.453125 -88.734375 L 79.109375 -88.734375 C 81.472656 -88.734375 82.65625 -87.550781 82.65625 -85.1875 L 82.65625 -60.71875 C 82.65625 -58.351562 81.804688 -56.328125 80.109375 -54.640625 L 70.984375 -45.515625 C 70.140625 -44.660156 70.140625 -43.898438 70.984375 -43.234375 L 80.109375 -34.234375 C 81.804688 -32.535156 82.65625 -30.503906 82.65625 -28.140625 L 82.65625 -3.546875 C 82.65625 -1.179688 81.472656 0 79.109375 0 L 68.453125 0 C 66.085938 0 64.90625 -1.179688 64.90625 -3.546875 L 64.90625 -22.5625 C 64.90625 -23.664062 64.523438 -24.597656 63.765625 -25.359375 Z M 63.765625 -25.359375 "/></g></g></g><g fill="#ffffff" fill-opacity="1"><g transform="translate(885.678064, 372.654947)"><g><path d="M 79.234375 0 L 7.21875 0 C 6.207031 0 5.363281 -0.335938 4.6875 -1.015625 C 4.007812 -1.691406 3.671875 -2.535156 3.671875 -3.546875 L 3.671875 -85.1875 C 3.671875 -86.195312 4.007812 -87.039062 4.6875 -87.71875 C 5.363281 -88.394531 6.207031 -88.734375 7.21875 -88.734375 L 79.234375 -88.734375 C 81.429688 -88.734375 82.53125 -87.59375 82.53125 -85.3125 L 82.53125 -74.40625 C 82.53125 -72.125 81.429688 -70.984375 79.234375 -70.984375 L 23.078125 -70.984375 C 21.972656 -70.984375 21.421875 -70.4375 21.421875 -69.34375 L 21.421875 -55.015625 C 21.421875 -53.921875 21.972656 -53.375 23.078125 -53.375 L 73.90625 -53.375 C 74.914062 -53.375 75.738281 -53.035156 76.375 -52.359375 C 77.007812 -51.679688 77.328125 -50.878906 77.328125 -49.953125 L 77.328125 -38.921875 C 77.328125 -37.898438 77.007812 -37.070312 76.375 -36.4375 C 75.738281 -35.8125 74.914062 -35.5 73.90625 -35.5 L 23.078125 -35.5 C 21.972656 -35.5 21.421875 -34.90625 21.421875 -33.71875 L 21.421875 -19.390625 C 21.421875 -18.296875 21.972656 -17.75 23.078125 -17.75 L 79.234375 -17.75 C 81.429688 -17.75 82.53125 -16.609375 82.53125 -14.328125 L 82.53125 -3.421875 C 82.53125 -1.140625 81.429688 0 79.234375 0 Z M 79.234375 0 "/></g></g></g><g fill="#ffffff" fill-opacity="1"><g transform="translate(971.876036, 372.654947)"><g><path d="M 32.453125 -70.984375 L 7.09375 -70.984375 C 4.8125 -70.984375 3.671875 -72.125 3.671875 -74.40625 L 3.671875 -85.3125 C 3.671875 -87.59375 4.8125 -88.734375 7.09375 -88.734375 L 79.109375 -88.734375 C 81.390625 -88.734375 82.53125 -87.59375 82.53125 -85.3125 L 82.53125 -72.390625 C 82.53125 -71.453125 82.101562 -70.984375 81.25 -70.984375 L 53.75 -70.984375 C 52.644531 -70.984375 52.09375 -70.4375 52.09375 -69.34375 L 52.09375 -3.421875 C 52.09375 -2.328125 51.753906 -1.484375 51.078125 -0.890625 C 50.410156 -0.296875 49.609375 0 48.671875 0 L 37.65625 0 C 35.375 0 34.234375 -1.140625 34.234375 -3.421875 L 34.234375 -69.34375 C 34.234375 -70.4375 33.640625 -70.984375 32.453125 -70.984375 Z M 32.453125 -70.984375 "/></g></g></g><g fill="#ffffff" fill-opacity="1"><g transform="translate(601.85856, 524.322502)"><g><path d="M 7.21875 -88.734375 L 79.234375 -88.734375 C 81.597656 -88.734375 82.78125 -87.550781 82.78125 -85.1875 L 82.78125 -49.1875 C 82.78125 -46.820312 81.9375 -44.789062 80.25 -43.09375 L 59.953125 -22.8125 C 58.265625 -21.125 56.238281 -20.28125 53.875 -20.28125 L 23.203125 -20.28125 C 22.097656 -20.28125 21.546875 -19.734375 21.546875 -18.640625 L 21.546875 -3.546875 C 21.546875 -1.179688 20.363281 0 18 0 L 7.21875 0 C 4.851562 0 3.671875 -1.179688 3.671875 -3.546875 L 3.671875 -85.1875 C 3.671875 -87.550781 4.851562 -88.734375 7.21875 -88.734375 Z M 21.546875 -69.21875 L 21.546875 -39.796875 C 21.546875 -38.703125 22.097656 -38.15625 23.203125 -38.15625 L 48.296875 -38.15625 C 49.398438 -38.15625 50.332031 -38.535156 51.09375 -39.296875 L 63.765625 -51.96875 C 64.523438 -52.726562 64.90625 -53.660156 64.90625 -54.765625 L 64.90625 -69.21875 C 64.90625 -70.3125 64.351562 -70.859375 63.25 -70.859375 L 23.203125 -70.859375 C 22.097656 -70.859375 21.546875 -70.3125 21.546875 -69.21875 Z M 21.546875 -69.21875 "/></g></g></g><g fill="#ffffff" fill-opacity="1"><g transform="translate(688.310063, 524.322502)"><g><path d="M 7.21875 -88.734375 L 79.234375 -88.734375 C 81.597656 -88.734375 82.78125 -87.550781 82.78125 -85.1875 L 82.78125 -49.1875 C 82.78125 -46.820312 81.9375 -44.789062 80.25 -43.09375 L 65.921875 -28.78125 C 65.160156 -28.019531 65.160156 -27.257812 65.921875 -26.5 L 80.25 -12.171875 C 81.9375 -10.484375 82.78125 -8.453125 82.78125 -6.078125 L 82.78125 -3.546875 C 82.78125 -1.179688 81.597656 0 79.234375 0 L 65.796875 0 C 65.203125 0 64.90625 -0.296875 64.90625 -0.890625 L 64.90625 -1.390625 C 64.90625 -1.984375 64.691406 -2.492188 64.265625 -2.921875 L 48.046875 -19.140625 C 47.285156 -19.898438 46.351562 -20.28125 45.25 -20.28125 L 23.203125 -20.28125 C 22.097656 -20.28125 21.546875 -19.734375 21.546875 -18.640625 L 21.546875 -3.546875 C 21.546875 -1.179688 20.363281 0 18 0 L 7.21875 0 C 4.851562 0 3.671875 -1.179688 3.671875 -3.546875 L 3.671875 -85.1875 C 3.671875 -87.550781 4.851562 -88.734375 7.21875 -88.734375 Z M 21.546875 -69.21875 L 21.546875 -39.796875 C 21.546875 -38.703125 22.097656 -38.15625 23.203125 -38.15625 L 48.296875 -38.15625 C 49.398438 -38.15625 50.332031 -38.535156 51.09375 -39.296875 L 63.765625 -51.96875 C 64.523438 -52.726562 64.90625 -53.660156 64.90625 -54.765625 L 64.90625 -69.21875 C 64.90625 -70.3125 64.351562 -70.859375 63.25 -70.859375 L 23.203125 -70.859375 C 22.097656 -70.859375 21.546875 -70.3125 21.546875 -69.21875 Z M 21.546875 -69.21875 "/></g></g></g><g fill="#ffffff" fill-opacity="1"><g transform="translate(774.761567, 524.322502)"><g><path d="M 7.21875 -88.734375 L 79.109375 -88.734375 C 80.203125 -88.734375 81.046875 -88.394531 81.640625 -87.71875 C 82.234375 -87.039062 82.53125 -86.195312 82.53125 -85.1875 L 82.53125 -3.546875 C 82.53125 -2.535156 82.234375 -1.691406 81.640625 -1.015625 C 81.046875 -0.335938 80.203125 0 79.109375 0 L 7.21875 0 C 6.207031 0 5.363281 -0.335938 4.6875 -1.015625 C 4.007812 -1.691406 3.671875 -2.535156 3.671875 -3.546875 L 3.671875 -85.1875 C 3.671875 -86.195312 4.007812 -87.039062 4.6875 -87.71875 C 5.363281 -88.394531 6.207031 -88.734375 7.21875 -88.734375 Z M 21.421875 -69.34375 L 21.421875 -19.390625 C 21.421875 -18.296875 21.972656 -17.75 23.078125 -17.75 L 63.125 -17.75 C 64.226562 -17.75 64.78125 -18.296875 64.78125 -19.390625 L 64.78125 -69.34375 C 64.78125 -70.4375 64.226562 -70.984375 63.125 -70.984375 L 23.078125 -70.984375 C 21.972656 -70.984375 21.421875 -70.4375 21.421875 -69.34375 Z M 21.421875 -69.34375 "/></g></g></g></svg>